# xmcd
#
# Track frame offsets: 
#        150
#        11945
#        24167
#        36770
#        48732
#        61987
#        76240
#        88102
#        99112
#        113607
#        126347
#        139450
#
# Disc length: 2026 seconds
#
# Revision: 0
# Processed by: cddbd v1.5.2PL0 Copyright (c) Steve Scherf et al.
# Submitted via: ExactAudioCopy v0.99pb3
#
DISCID=9907e80c
DTITLE=T. Texas Tyler  - T. Texas Tyler
DYEAR=1959
DGENRE=Country
TTITLE0=Remember Me
TTITLE1=In My Little Red Book
TTITLE2=Filipino Baby
TTITLE3=Who's To Blame
TTITLE4=You Turned A Good Man Down
TTITLE5=Careless Love
TTITLE6=Oklahoma Hills
TTITLE7=It's Been So Long Darlin'
TTITLE8=T. Texas Blues
TTITLE9=You Nearly Lose Your Mind
TTITLE10=I Hung My Head And Cried
TTITLE11=Gals Don't Mean A Thing
EXTD=
EXTT0=
EXTT1=
EXTT2=
EXTT3=
EXTT4=
EXTT5=
EXTT6=
EXTT7=
EXTT8=
EXTT9=
EXTT10=
EXTT11=
PLAYORDER=
